<svg width="54" height="51" viewBox="0 0 54 51" fill="none" xmlns="http://www.w3.org/2000/svg">
<path d="M17.7218 29.29H19.497C19.9872 29.29 20.3845 28.8925 20.3845 28.4024C20.3845 27.9122 19.9872 27.5149 19.497 27.5149H17.7218C17.2316 27.5149 16.8342 27.9123 16.8342 28.4024C16.8342 28.8926 17.2316 29.29 17.7218 29.29Z" fill="#FF3D00" fill-opacity="0.74"/>
<path d="M24.8509 23.9645H30.1764C30.6666 23.9645 31.064 23.5672 31.064 23.077C31.064 22.5868 30.6666 22.1895 30.1764 22.1895H24.8509C24.3607 22.1895 23.9634 22.5868 23.9634 23.077C23.9634 23.5672 24.3608 23.9645 24.8509 23.9645Z" fill="#FF3D00" fill-opacity="0.74"/>
<path d="M53.1936 43.1025C53.1901 42.7547 53.1797 42.406 53.1587 42.0563C53.1099 41.2378 53.0136 40.4148 52.8713 39.5904L52.635 38.2203L48.6473 15.0892H42.321C40.757 6.79727 35.5495 0 27.4849 0C19.4206 0 14.2143 6.79602 12.649 15.0892H4.54814L2.53039 26.793L0.323226 39.5905C0.169183 40.4855 0.0713062 41.3782 0.0272045 42.2652C-0.0101362 43.0131 -0.0098242 43.7575 0.0330293 44.4956C0.256346 48.3752 0.827899 50.5924 2.63305 50.5924H50.5624C52.0861 50.5924 52.7304 49.0153 53.0288 46.1904C53.029 46.1886 53.0293 46.1866 53.0294 46.1847C53.0843 45.6633 53.1275 45.0994 53.1623 44.4951C53.1857 44.0918 53.197 43.6867 53.1964 43.28C53.1964 43.221 53.1942 43.1616 53.1936 43.1025ZM50.888 38.5353L51.1221 39.8925C51.3187 41.031 51.4194 42.163 51.4213 43.2804C51.4214 43.3274 51.4198 43.3739 51.4194 43.4208C51.4186 43.5599 51.4179 43.6992 51.414 43.838C51.4088 44.0232 51.4009 44.208 51.3902 44.3924C51.362 44.883 51.3246 45.3495 51.2777 45.7856C51.2769 45.7923 51.2763 45.7992 51.2756 45.8059C51.2468 46.0722 51.2141 46.3263 51.178 46.5681C51.1518 46.7435 51.1238 46.9121 51.0938 47.0732C51.0506 47.3045 51.0036 47.5212 50.9523 47.7204C50.8352 48.1748 50.7014 48.5167 50.5677 48.72C50.5371 48.7664 50.5217 48.7907 50.5196 48.8032C50.5179 48.8133 50.5246 48.8161 50.5387 48.817H39.1312C38.4954 47.1321 38.1647 45.3347 38.1647 43.4915C38.1647 36.6365 42.7734 30.7255 49.2348 28.9479L50.888 38.5353ZM18.6093 25.7397C20.0797 25.7397 21.272 26.9321 21.272 28.4025C21.272 29.8729 20.0797 31.0652 18.6093 31.0652C17.1388 31.0652 15.9465 29.8729 15.9465 28.4025C15.9465 26.9321 17.1388 25.7397 18.6093 25.7397ZM17.0006 18.6391C16.9086 18.6391 16.8346 18.5651 16.8346 18.4731V16.8643H20.3841V18.4731C20.3841 18.5651 20.3101 18.6391 20.2181 18.6391H17.0006ZM18.1386 15.0888C18.5036 13.6693 19.0143 12.2286 19.6958 10.8822C21.5823 7.15372 24.1783 5.32538 27.485 5.32538C30.7918 5.32538 33.3877 7.15372 35.2742 10.8821C35.9559 12.2289 36.4672 13.6708 36.8323 15.0891H22.1592V15.0888H18.1386ZM27.485 1.77509C34.3827 1.77509 39.0139 7.68991 40.5125 15.0888H38.6616C38.2627 13.4147 37.6756 11.6957 36.8582 10.0806C34.6867 5.78886 31.5081 3.55029 27.4851 3.55029C23.4622 3.55029 20.2836 5.78886 18.1121 10.0807C17.2948 11.6955 16.7085 13.4128 16.3095 15.0888H15.0596H14.4579C15.9576 7.68877 20.5877 1.77509 27.485 1.77509ZM6.04344 16.8643H15.0594V18.4731C15.0594 19.5456 15.9281 20.4142 17.0005 20.4142H17.7216V24.0535C15.6961 24.4648 14.1713 26.2556 14.1713 28.4024C14.1713 30.8533 16.1584 32.8403 18.6093 32.8403C21.0601 32.8403 23.0472 30.8533 23.0472 28.4024C23.0472 26.2556 21.5225 24.4647 19.4969 24.0535V20.4143H20.2181C21.2905 20.4143 22.1592 19.5456 22.1592 18.4732V16.8643H47.152L48.9324 27.1917C41.6205 29.1217 36.3894 35.7699 36.3894 43.4914C36.3894 45.3234 36.6829 47.1165 37.2487 48.8172H16.0035C16.5693 47.1165 16.8628 45.3233 16.8628 43.4914C16.8628 35.7478 11.6044 29.0854 4.26585 27.1748L6.04344 16.8643ZM2.07335 39.8927L3.96327 28.9303C10.4516 30.6887 15.0876 36.6142 15.0876 43.4914C15.0876 45.3346 14.7568 47.132 14.1211 48.8169H2.65697C2.67112 48.816 2.67798 48.8133 2.67632 48.8033C2.67445 48.7908 2.65905 48.7667 2.62837 48.72C2.49461 48.5167 2.36085 48.1747 2.24362 47.7203C2.0252 46.873 1.88176 45.7199 1.80542 44.3928C1.7661 43.7159 1.76589 43.0317 1.80053 42.3429C1.8414 41.5314 1.93158 40.7138 2.07335 39.8927Z" fill="#FF3D00" fill-opacity="0.74"/>
</svg>
