<svg width="27" height="27" viewBox="0 0 27 27" fill="none" xmlns="http://www.w3.org/2000/svg">
<g clip-path="url(#clip0)">
<path d="M21.7172 26.4129C23.338 26.4129 24.6519 25.099 24.6519 23.4782C24.6519 21.8574 23.338 20.5435 21.7172 20.5435C20.0964 20.5435 18.7825 21.8574 18.7825 23.4782C18.7825 25.099 20.0964 26.4129 21.7172 26.4129Z" fill="#FF3D00" fill-opacity="0.74"/>
<path d="M9.97818 26.4129C11.599 26.4129 12.9129 25.099 12.9129 23.4782C12.9129 21.8574 11.599 20.5435 9.97818 20.5435C8.35738 20.5435 7.04346 21.8574 7.04346 23.4782C7.04346 25.099 8.35738 26.4129 9.97818 26.4129Z" fill="#FF3D00" fill-opacity="0.74"/>
<path d="M26.853 4.30726C26.7415 4.18103 26.5811 4.10878 26.4128 4.10889H5.28263C4.95847 4.10883 4.69561 4.37153 4.69556 4.69569C4.69556 4.73514 4.69952 4.77454 4.70744 4.81323L7.05525 16.5522C7.11105 16.8255 7.35151 17.0218 7.63044 17.0217C7.65625 17.0234 7.68211 17.0234 7.70792 17.0217L25.3164 14.6739C25.5809 14.6386 25.7883 14.4293 25.8211 14.1644L26.995 4.77322C27.0174 4.60468 26.9656 4.4347 26.853 4.30726Z" fill="#FF3D00" fill-opacity="0.74"/>
<path d="M9.97819 14.674C9.69128 14.6739 9.44652 14.4663 9.39947 14.1833L8.2256 7.13993C8.18207 6.81868 8.40719 6.52303 8.72843 6.4795C9.03603 6.43779 9.32293 6.64287 9.38308 6.94745L10.557 13.9908C10.6099 14.3104 10.394 14.6125 10.0745 14.6658C10.0427 14.6713 10.0105 14.674 9.97819 14.674Z" fill="white"/>
<path d="M12.9129 14.087C12.6083 14.0882 12.3533 13.8563 12.3259 13.5529L11.739 7.09644C11.7086 6.77371 11.9456 6.48746 12.2684 6.45709C12.27 6.45692 12.2715 6.45681 12.2731 6.45665C12.5959 6.42743 12.8813 6.66553 12.9105 6.98837V6.98843L13.4975 13.4448C13.5266 13.7677 13.2886 14.0531 12.9658 14.0823H12.9657L12.9129 14.087Z" fill="white"/>
<path d="M15.8477 13.5C15.5235 13.5 15.2607 13.2372 15.2607 12.9131V7.04363C15.2607 6.71947 15.5235 6.45667 15.8477 6.45667C16.1719 6.45667 16.4347 6.71947 16.4347 7.04363V12.9131C16.4347 13.2373 16.1719 13.5 15.8477 13.5Z" fill="white"/>
<path d="M18.7823 12.9131H18.7166C18.3942 12.879 18.1606 12.59 18.1947 12.2676C18.1949 12.2656 18.1952 12.2636 18.1954 12.2616L18.7823 6.9791C18.8204 6.65626 19.1105 6.42372 19.4339 6.45674C19.756 6.49239 19.9884 6.78244 19.9528 7.10467V7.10472L19.3658 12.3872C19.3345 12.686 19.0828 12.9129 18.7823 12.9131Z" fill="white"/>
<path d="M21.7172 12.3261C21.393 12.326 21.1303 12.0632 21.1304 11.739C21.1304 11.6912 21.1363 11.6435 21.1478 11.5972L22.3217 6.90159C22.3929 6.58535 22.7069 6.38665 23.0232 6.4578C23.3394 6.52895 23.5381 6.84304 23.467 7.15928C23.465 7.16814 23.4628 7.17694 23.4604 7.18569L22.2865 11.8813C22.2213 12.1426 21.9865 12.3261 21.7172 12.3261Z" fill="white"/>
<path d="M24.0648 19.3695H10.5169C8.56028 19.365 6.87664 17.9851 6.4881 16.0673L3.62734 1.76109H0.586966C0.262806 1.76109 0 1.49828 0 1.17412C0 0.849964 0.262806 0.587158 0.586966 0.587158H4.10865C4.38764 0.587103 4.62805 0.783382 4.68384 1.0567L7.63969 15.8361C7.91675 17.206 9.11924 18.1921 10.5169 18.1956H24.0648C24.389 18.1956 24.6518 18.4584 24.6518 18.7826C24.6518 19.1067 24.389 19.3695 24.0648 19.3695Z" fill="#FF3D00" fill-opacity="0.74"/>
</g>
<defs>
<clipPath id="clip0">
<rect width="27" height="27" fill="white"/>
</clipPath>
</defs>
</svg>
