<svg width="28" height="28" viewBox="0 0 28 28" fill="none" xmlns="http://www.w3.org/2000/svg">
<g clip-path="url(#clip0)">
<path d="M25.3682 6.25851L24.75 4.40533C24.5146 3.69952 23.8564 3.22528 23.1125 3.22528H17.9166V1.5336C17.9166 0.68808 17.2292 0 16.3838 0H11.6256C10.7805 0 10.0929 0.68808 10.0929 1.5336V3.22528H4.89712C4.15308 3.22528 3.4949 3.69952 3.25949 4.40533L2.64127 6.25851C2.50049 6.68042 2.57184 7.14761 2.83182 7.50842C3.0918 7.86923 3.51242 8.08478 3.95718 8.08478H4.60339L6.02569 25.6726C6.13144 26.9776 7.23886 28 8.5473 28H19.7508C21.059 28 22.1666 26.9776 22.2722 25.6724L23.6945 8.08478H24.0523C24.497 8.08478 24.9177 7.86923 25.1776 7.50864C25.4376 7.14783 25.509 6.68042 25.3682 6.25851ZM11.7335 1.64062H16.276V3.22528H11.7335V1.64062ZM20.6369 25.5401C20.5997 25.9996 20.2105 26.3594 19.7508 26.3594H8.5473C8.08758 26.3594 7.69836 25.9996 7.66119 25.5401L6.24936 8.08478H22.0485L20.6369 25.5401ZM4.30902 6.44415L4.81595 4.92444C4.82748 4.8894 4.86017 4.86591 4.89712 4.86591H23.1125C23.1495 4.86591 23.182 4.8894 23.1937 4.92444L23.7006 6.44415H4.30902Z" fill="#C6C6C6"/>
<path d="M18.0203 25.482C18.0348 25.4829 18.0492 25.4831 18.0637 25.4831C18.4971 25.4831 18.8594 25.1434 18.8821 24.7055L19.6524 9.91808C19.6759 9.46563 19.3281 9.07961 18.8759 9.05611C18.4224 9.03198 18.0376 9.38018 18.0139 9.83263L17.2438 24.62C17.2203 25.0725 17.5679 25.4585 18.0203 25.482Z" fill="#C6C6C6"/>
<path d="M9.16383 24.7075C9.18775 25.1447 9.54963 25.4831 9.98222 25.4831C9.99717 25.4831 10.0126 25.4827 10.0277 25.4818C10.48 25.4573 10.8267 25.0706 10.8021 24.6182L9.99525 9.83075C9.97068 9.37829 9.58402 9.03158 9.13157 9.05636C8.67933 9.08093 8.33262 9.46759 8.35719 9.92004L9.16383 24.7075Z" fill="#C6C6C6"/>
<path d="M14.0139 25.4831C14.467 25.4831 14.8342 25.1159 14.8342 24.6628V9.87537C14.8342 9.42227 14.467 9.05505 14.0139 9.05505C13.5608 9.05505 13.1936 9.42227 13.1936 9.87537V24.6628C13.1936 25.1159 13.5608 25.4831 14.0139 25.4831Z" fill="#C6C6C6"/>
</g>
<defs>
<clipPath id="clip0">
<rect width="28" height="28" fill="white"/>
</clipPath>
</defs>
</svg>
