<svg width="61" height="61" viewBox="0 0 61 61" fill="none" xmlns="http://www.w3.org/2000/svg">
<path d="M59.4506 25.3507H57.9195C57.2223 22.6623 55.3713 20.7411 52.4059 19.6341C50.4668 18.9103 48.106 18.5586 45.1889 18.5586C44.9789 18.5586 44.7642 18.5582 44.5462 18.5577L44.5365 18.5577L44.4719 18.5576C44.0298 18.5566 43.5753 18.5557 43.1138 18.5586H17.8576C17.3832 18.5557 16.9161 18.5566 16.4627 18.5577L16.4519 18.5577C16.234 18.5582 16.0199 18.5586 15.8102 18.5586C12.893 18.5586 10.5324 18.9105 8.59324 19.6341C5.62784 20.7409 3.77675 22.6622 3.07966 25.3507H1.5493C0.694946 25.3507 0 26.0459 0 26.9003V28.9249C0 29.7793 0.694946 30.4743 1.5493 30.4743H2.88224C3.56218 37.9882 7.26399 42.4434 12.898 42.4434C19.3428 42.4434 28.2783 35.8659 28.6453 25.1047C29.0813 25.0057 29.7081 24.9267 30.5001 24.9267C31.2914 24.9267 31.9181 25.0058 32.3539 25.1046C32.7206 35.8659 41.6561 42.4434 48.1011 42.4434C53.7352 42.4434 57.4369 37.9882 58.1168 30.4743H59.4505C60.3048 30.4743 60.9999 29.7793 60.9999 28.9249V26.9003C60.9999 26.0459 60.3047 25.3507 59.4506 25.3507ZM4.37889 28.592H1.88206V27.2328H4.37889C4.42333 27.2328 4.46491 27.2524 4.49302 27.2869L5.00533 27.9124L4.49302 28.5378C4.46502 28.5724 4.42333 28.592 4.37889 28.592ZM21.9234 36.2745C19.2793 38.9185 15.821 40.561 12.898 40.561C10.4813 40.561 8.53665 39.567 7.11816 37.6066C5.85968 35.8672 5.0556 33.4003 4.76943 30.4341C5.22907 30.3445 5.64606 30.1004 5.94916 29.7306L6.62718 28.9026C7.09719 28.3289 7.09719 27.496 6.62718 26.9222L5.94904 26.0941C5.70075 25.7912 5.37573 25.5722 5.01379 25.4532C6.11059 22.1264 9.73449 20.4406 15.8101 20.4406H17.7719C20.8113 20.4595 24.3832 20.6507 25.9385 22.2025C26.5022 22.7649 26.7761 23.4894 26.7761 24.4178C26.7762 28.9343 25.0527 33.1451 21.9234 36.2745ZM33.7312 20.8703C33.0822 21.5176 32.6594 22.3007 32.465 23.2069C31.8875 23.1013 31.2168 23.0442 30.4999 23.0442C29.7828 23.0442 29.1118 23.1013 28.5341 23.207C28.3398 22.3008 27.9167 21.5176 27.2679 20.8702C27.1143 20.717 26.9499 20.5745 26.777 20.4408H34.2221C34.0491 20.5746 33.8847 20.7171 33.7312 20.8703ZM53.881 37.6067C52.4624 39.5671 50.5178 40.5611 48.101 40.5611C45.1782 40.5611 41.7198 38.9185 39.0757 36.2746C35.9462 33.1452 34.2227 28.9345 34.2227 24.4181C34.2227 23.4897 34.4967 22.7651 35.0604 22.2028C36.6086 20.6581 40.1544 20.4608 43.1849 20.4408H45.1888C51.2644 20.4408 54.8885 22.1267 55.9851 25.4536C55.6234 25.5726 55.2987 25.7914 55.0506 26.0944L54.3725 26.9224C53.9027 27.4962 53.9027 28.329 54.3726 28.9028L55.0505 29.7307C55.3533 30.1005 55.7702 30.3445 56.2294 30.4342C55.9435 33.4002 55.1394 35.8674 53.881 37.6067ZM59.1178 28.592H56.621C56.5767 28.592 56.5351 28.5724 56.5069 28.538L55.9946 27.9125L56.507 27.287C56.5351 27.2526 56.5768 27.2329 56.621 27.2329H59.1178V28.592Z" fill="#FF3D00" fill-opacity="0.74"/>
<path d="M59.4506 25.3507H57.9195C57.2223 22.6623 55.3713 20.7411 52.4059 19.6341C50.4668 18.9103 48.106 18.5586 45.1889 18.5586C44.9789 18.5586 44.7642 18.5582 44.5462 18.5577L44.5365 18.5577L44.4719 18.5576C44.0298 18.5566 43.5753 18.5557 43.1138 18.5586H17.8576C17.3832 18.5557 16.9161 18.5566 16.4627 18.5577L16.4519 18.5577C16.234 18.5582 16.0199 18.5586 15.8102 18.5586C12.893 18.5586 10.5324 18.9105 8.59324 19.6341C5.62784 20.7409 3.77675 22.6622 3.07966 25.3507H1.5493C0.694946 25.3507 0 26.0459 0 26.9003V28.9249C0 29.7793 0.694946 30.4743 1.5493 30.4743H2.88224C3.56218 37.9882 7.26399 42.4434 12.898 42.4434C19.3428 42.4434 28.2783 35.8659 28.6453 25.1047C29.0813 25.0057 29.7081 24.9267 30.5001 24.9267C31.2914 24.9267 31.9181 25.0058 32.3539 25.1046C32.7206 35.8659 41.6561 42.4434 48.1011 42.4434C53.7352 42.4434 57.4369 37.9882 58.1168 30.4743H59.4505C60.3048 30.4743 60.9999 29.7793 60.9999 28.9249V26.9003C60.9999 26.0459 60.3047 25.3507 59.4506 25.3507ZM4.37889 28.592H1.88206V27.2328H4.37889C4.42333 27.2328 4.46491 27.2524 4.49302 27.2869L5.00533 27.9124L4.49302 28.5378C4.46502 28.5724 4.42333 28.592 4.37889 28.592ZM21.9234 36.2745C19.2793 38.9185 15.821 40.561 12.898 40.561C10.4813 40.561 8.53665 39.567 7.11816 37.6066C5.85968 35.8672 5.0556 33.4003 4.76943 30.4341C5.22907 30.3445 5.64606 30.1004 5.94916 29.7306L6.62718 28.9026C7.09719 28.3289 7.09719 27.496 6.62718 26.9222L5.94904 26.0941C5.70075 25.7912 5.37573 25.5722 5.01379 25.4532C6.11059 22.1264 9.73449 20.4406 15.8101 20.4406H17.7719C20.8113 20.4595 24.3832 20.6507 25.9385 22.2025C26.5022 22.7649 26.7761 23.4894 26.7761 24.4178C26.7762 28.9343 25.0527 33.1451 21.9234 36.2745ZM33.7312 20.8703C33.0822 21.5176 32.6594 22.3007 32.465 23.2069C31.8875 23.1013 31.2168 23.0442 30.4999 23.0442C29.7828 23.0442 29.1118 23.1013 28.5341 23.207C28.3398 22.3008 27.9167 21.5176 27.2679 20.8702C27.1143 20.717 26.9499 20.5745 26.777 20.4408H34.2221C34.0491 20.5746 33.8847 20.7171 33.7312 20.8703ZM53.881 37.6067C52.4624 39.5671 50.5178 40.5611 48.101 40.5611C45.1782 40.5611 41.7198 38.9185 39.0757 36.2746C35.9462 33.1452 34.2227 28.9345 34.2227 24.4181C34.2227 23.4897 34.4967 22.7651 35.0604 22.2028C36.6086 20.6581 40.1544 20.4608 43.1849 20.4408H45.1888C51.2644 20.4408 54.8885 22.1267 55.9851 25.4536C55.6234 25.5726 55.2987 25.7914 55.0506 26.0944L54.3725 26.9224C53.9027 27.4962 53.9027 28.329 54.3726 28.9028L55.0505 29.7307C55.3533 30.1005 55.7702 30.3445 56.2294 30.4342C55.9435 33.4002 55.1394 35.8674 53.881 37.6067ZM59.1178 28.592H56.621C56.5767 28.592 56.5351 28.5724 56.5069 28.538L55.9946 27.9125L56.507 27.287C56.5351 27.2526 56.5768 27.2329 56.621 27.2329H59.1178V28.592Z" stroke="black"/>
</svg>
