<svg width="25" height="25" viewBox="0 0 25 25" fill="none" xmlns="http://www.w3.org/2000/svg">
<mask id="path-1-inside-1" fill="white">
<path d="M24.3262 10.8738L24.3243 10.8719L14.1263 0.674249C13.6916 0.239373 13.1136 0 12.4989 0C11.8842 0 11.3062 0.239373 10.8714 0.674249L0.678662 10.8668C0.675228 10.8702 0.671604 10.8738 0.668362 10.8772C-0.224279 11.775 -0.222753 13.2317 0.672749 14.1272C1.08188 14.5365 1.62204 14.7734 2.19977 14.7984C2.22343 14.8007 2.24708 14.8018 2.27092 14.8018H2.67719V22.3065C2.67719 23.7917 3.88568 25 5.37094 25H9.36074C9.76529 25 10.0932 24.672 10.0932 24.2676V18.3838C10.0932 17.7061 10.6446 17.1549 11.3223 17.1549H13.6756C14.3532 17.1549 14.9045 17.7061 14.9045 18.3838V24.2676C14.9045 24.672 15.2323 25 15.6369 25H19.6267C21.1121 25 22.3204 23.7917 22.3204 22.3065V14.8018H22.6973C23.3119 14.8018 23.8898 14.5624 24.3249 14.1274C25.2213 13.2305 25.2217 11.7712 24.3262 10.8738ZM23.289 13.0917C23.1309 13.2498 22.9207 13.337 22.6973 13.337H21.588C21.1835 13.337 20.8556 13.6648 20.8556 14.0694V22.3065C20.8556 22.984 20.3044 23.5352 19.6267 23.5352H16.3693V18.3838C16.3693 16.8986 15.161 15.6901 13.6756 15.6901H11.3223C9.83681 15.6901 8.62831 16.8986 8.62831 18.3838V23.5352H5.37094C4.69345 23.5352 4.14203 22.984 4.14203 22.3065V14.0694C4.14203 13.6648 3.81416 13.337 3.40961 13.337H2.31937C2.30792 13.3362 2.29667 13.3356 2.28503 13.3354C2.06683 13.3316 1.86217 13.245 1.70882 13.0915C1.38267 12.7653 1.38267 12.2345 1.70882 11.9082L1.70978 11.9072L11.9074 1.70994C12.0654 1.55182 12.2754 1.46485 12.4989 1.46485C12.7223 1.46485 12.9323 1.55182 13.0904 1.70994L23.2857 11.9051C23.2873 11.9066 23.289 11.9082 23.2905 11.9097C23.615 12.2364 23.6144 12.7661 23.289 13.0917Z"/>
</mask>
<path d="M24.3262 10.8738L24.3243 10.8719L14.1263 0.674249C13.6916 0.239373 13.1136 0 12.4989 0C11.8842 0 11.3062 0.239373 10.8714 0.674249L0.678662 10.8668C0.675228 10.8702 0.671604 10.8738 0.668362 10.8772C-0.224279 11.775 -0.222753 13.2317 0.672749 14.1272C1.08188 14.5365 1.62204 14.7734 2.19977 14.7984C2.22343 14.8007 2.24708 14.8018 2.27092 14.8018H2.67719V22.3065C2.67719 23.7917 3.88568 25 5.37094 25H9.36074C9.76529 25 10.0932 24.672 10.0932 24.2676V18.3838C10.0932 17.7061 10.6446 17.1549 11.3223 17.1549H13.6756C14.3532 17.1549 14.9045 17.7061 14.9045 18.3838V24.2676C14.9045 24.672 15.2323 25 15.6369 25H19.6267C21.1121 25 22.3204 23.7917 22.3204 22.3065V14.8018H22.6973C23.3119 14.8018 23.8898 14.5624 24.3249 14.1274C25.2213 13.2305 25.2217 11.7712 24.3262 10.8738ZM23.289 13.0917C23.1309 13.2498 22.9207 13.337 22.6973 13.337H21.588C21.1835 13.337 20.8556 13.6648 20.8556 14.0694V22.3065C20.8556 22.984 20.3044 23.5352 19.6267 23.5352H16.3693V18.3838C16.3693 16.8986 15.161 15.6901 13.6756 15.6901H11.3223C9.83681 15.6901 8.62831 16.8986 8.62831 18.3838V23.5352H5.37094C4.69345 23.5352 4.14203 22.984 4.14203 22.3065V14.0694C4.14203 13.6648 3.81416 13.337 3.40961 13.337H2.31937C2.30792 13.3362 2.29667 13.3356 2.28503 13.3354C2.06683 13.3316 1.86217 13.245 1.70882 13.0915C1.38267 12.7653 1.38267 12.2345 1.70882 11.9082L1.70978 11.9072L11.9074 1.70994C12.0654 1.55182 12.2754 1.46485 12.4989 1.46485C12.7223 1.46485 12.9323 1.55182 13.0904 1.70994L23.2857 11.9051C23.2873 11.9066 23.289 11.9082 23.2905 11.9097C23.615 12.2364 23.6144 12.7661 23.289 13.0917Z" fill="black"/>
<path d="M24.3262 10.8738L38.4834 -3.25327L38.4759 -3.2608L38.4683 -3.26832L24.3262 10.8738ZM24.3243 10.8719L38.4664 -3.27023L38.4662 -3.27049L24.3243 10.8719ZM14.1263 0.674249L-0.0189803 14.8133L-0.0156136 14.8166L14.1263 0.674249ZM10.8714 0.674249L25.0134 14.8165L25.0135 14.8164L10.8714 0.674249ZM0.678662 10.8668L-13.4633 -3.27551L-13.4635 -3.27538L0.678662 10.8668ZM0.668362 10.8772L14.8511 24.9786L15.0323 24.7964L15.2087 24.6096L0.668362 10.8772ZM0.672749 14.1272L14.8182 -0.0116531L14.8149 -0.0149484L0.672749 14.1272ZM2.19977 14.7984L4.1263 -5.10861L3.59611 -5.15992L3.06394 -5.18294L2.19977 14.7984ZM2.67719 14.8018H22.6772V-5.19818H2.67719V14.8018ZM22.3204 14.8018V-5.19818H2.32043V14.8018H22.3204ZM24.3249 14.1274L38.467 28.2695L38.47 28.2665L24.3249 14.1274ZM23.289 13.0917L37.4311 27.2338L37.4353 27.2297L23.289 13.0917ZM16.3693 23.5352H-3.6307V43.5352H16.3693V23.5352ZM8.62831 23.5352V43.5352H28.6283V23.5352H8.62831ZM2.31937 13.337L0.988986 33.2927L1.65344 33.337H2.31937V13.337ZM2.28503 13.3354L1.93544 33.3324L1.94633 33.3326L1.95723 33.3328L2.28503 13.3354ZM1.70882 13.0915L15.8597 -1.04185L15.851 -1.05064L1.70882 13.0915ZM1.70882 11.9082L-12.4333 -2.23396L-12.4374 -2.22983L1.70882 11.9082ZM1.70978 11.9072L-12.4321 -2.23518L-12.4324 -2.23492L1.70978 11.9072ZM11.9074 1.70994L26.0493 15.8523L26.0581 15.8435L11.9074 1.70994ZM13.0904 1.70994L-1.05176 15.8521L-1.05163 15.8522L13.0904 1.70994ZM23.2857 11.9051L37.4279 -2.23701L37.4277 -2.23715L23.2857 11.9051ZM23.2905 11.9097L37.4823 -2.18264L37.4575 -2.20758L37.4327 -2.23244L23.2905 11.9097ZM38.4683 -3.26832L38.4664 -3.27023L10.1822 25.014L10.1841 25.016L38.4683 -3.26832ZM38.4662 -3.27049L28.2681 -13.4682L-0.0156136 14.8166L10.1824 25.0143L38.4662 -3.27049ZM28.2715 -13.4648C24.0849 -17.6532 18.4182 -20 12.4989 -20V20C7.80912 20 3.29825 18.132 -0.0189799 14.8133L28.2715 -13.4648ZM12.4989 -20C6.57889 -20 0.914158 -17.6528 -3.27078 -13.4679L25.0135 14.8164C21.6983 18.1316 17.1894 20 12.4989 20V-20ZM-3.27064 -13.468L-13.4633 -3.27551L14.8207 25.009L25.0134 14.8165L-3.27064 -13.468ZM-13.4635 -3.27538C-13.4636 -3.2753 -13.4645 -3.27432 -13.4656 -3.27323C-13.4668 -3.27205 -13.4686 -3.27024 -13.4708 -3.26805C-13.4751 -3.26377 -13.4818 -3.257 -13.4901 -3.24873C-13.5061 -3.23263 -13.5323 -3.20627 -13.5645 -3.17368C-13.6241 -3.11326 -13.7353 -2.99984 -13.872 -2.85514L15.2087 24.6096C15.0753 24.7509 14.9675 24.8608 14.9114 24.9177C14.8574 24.9724 14.8111 25.0186 14.8208 25.0089L-13.4635 -3.27538ZM-13.5144 -3.22415C-22.1744 5.48578 -22.1643 19.5744 -13.4694 28.2693L14.8149 -0.0149484C21.7188 6.889 21.7258 18.0643 14.8511 24.9786L-13.5144 -3.22415ZM-13.4727 28.266C-9.51345 32.2271 -4.22971 34.539 1.33561 34.7797L3.06394 -5.18294C7.47379 -4.99222 11.6772 -3.1541 14.8182 -0.0116527L-13.4727 28.266ZM0.27325 34.7054C0.936846 34.7696 1.60342 34.8018 2.27092 34.8018V-5.19818C2.89074 -5.19818 3.51001 -5.16825 4.1263 -5.10861L0.27325 34.7054ZM2.27092 34.8018H2.67719V-5.19818H2.27092V34.8018ZM-17.3228 14.8018V22.3065H22.6772V14.8018H-17.3228ZM-17.3228 22.3065C-17.3228 34.8393 -7.15817 45 5.37094 45V5.00005C14.9295 5.00005 22.6772 12.7442 22.6772 22.3065H-17.3228ZM5.37094 45H9.36074V5.00005H5.37094V45ZM9.36074 45C20.8144 45 30.0932 35.7143 30.0932 24.2676H-9.90684C-9.90684 13.6297 -1.2838 5.00005 9.36074 5.00005V45ZM30.0932 24.2676V18.3838H-9.90684V24.2676H30.0932ZM30.0932 18.3838C30.0932 28.7559 21.6862 37.1549 11.3223 37.1549V-2.84508C-0.397077 -2.84508 -9.90684 6.65641 -9.90684 18.3838H30.0932ZM11.3223 37.1549H13.6756V-2.84508H11.3223V37.1549ZM13.6756 37.1549C3.30754 37.1549 -5.09554 28.7518 -5.09554 18.3838H34.9045C34.9045 6.66045 25.3989 -2.84508 13.6756 -2.84508V37.1549ZM-5.09554 18.3838V24.2676H34.9045V18.3838H-5.09554ZM-5.09554 24.2676C-5.09554 35.7143 4.18324 45 15.6369 45V5.00005C26.2814 5.00005 34.9045 13.6297 34.9045 24.2676H-5.09554ZM15.6369 45H19.6267V5.00005H15.6369V45ZM19.6267 45C32.1569 45 42.3204 34.8384 42.3204 22.3065H2.32043C2.32043 12.7451 10.0674 5.00005 19.6267 5.00005V45ZM42.3204 22.3065V14.8018H2.32043V22.3065H42.3204ZM22.3204 34.8018H22.6973V-5.19818H22.3204V34.8018ZM22.6973 34.8018C28.6193 34.8018 34.2834 32.4531 38.467 28.2695L10.1827 -0.0147576C13.4962 -3.32823 18.0045 -5.19818 22.6973 -5.19818V34.8018ZM38.47 28.2665C47.1699 19.5629 47.1724 5.45424 38.4834 -3.25327L10.169 25.0009C3.27104 18.0882 3.27277 6.89814 10.1797 -0.011749L38.47 28.2665ZM9.14685 -1.05045C12.7326 -4.63623 17.6067 -6.66303 22.6973 -6.66303V33.337C28.2347 33.337 33.5291 31.1358 37.4311 27.2338L9.14685 -1.05045ZM22.6973 -6.66303H21.588V33.337H22.6973V-6.66303ZM21.588 -6.66303C10.1378 -6.66303 0.855587 2.61912 0.855587 14.0694H40.8556C40.8556 24.7106 32.2291 33.337 21.588 33.337V-6.66303ZM0.855587 14.0694V22.3065H40.8556V14.0694H0.855587ZM0.855587 22.3065C0.855587 11.9363 9.26069 3.5352 19.6267 3.5352V43.5352C31.348 43.5352 40.8556 34.0317 40.8556 22.3065H0.855587ZM19.6267 3.5352H16.3693V43.5352H19.6267V3.5352ZM36.3693 23.5352V18.3838H-3.6307V23.5352H36.3693ZM36.3693 18.3838C36.3693 5.85379 26.2076 -4.30993 13.6756 -4.30993V35.6901C4.11439 35.6901 -3.6307 27.9434 -3.6307 18.3838H36.3693ZM13.6756 -4.30993H11.3223V35.6901H13.6756V-4.30993ZM11.3223 -4.30993C-1.20796 -4.30993 -11.3717 5.85195 -11.3717 18.3838H28.6283C28.6283 27.9452 20.8816 35.6901 11.3223 35.6901V-4.30993ZM-11.3717 18.3838V23.5352H28.6283V18.3838H-11.3717ZM8.62831 3.5352H5.37094V43.5352H8.62831V3.5352ZM5.37094 3.5352C15.7351 3.5352 24.142 11.9342 24.142 22.3065H-15.858C-15.858 34.0337 -6.34821 43.5352 5.37094 43.5352V3.5352ZM24.142 22.3065V14.0694H-15.858V22.3065H24.142ZM24.142 14.0694C24.142 2.61912 14.8598 -6.66303 3.40961 -6.66303V33.337C-7.23151 33.337 -15.858 24.7106 -15.858 14.0694H24.142ZM3.40961 -6.66303H2.31937V33.337H3.40961V-6.66303ZM3.64975 -6.61873C3.43544 -6.63302 3.06851 -6.6544 2.61284 -6.66187L1.95723 33.3328C1.52483 33.3257 1.1804 33.3054 0.988986 33.2927L3.64975 -6.61873ZM2.63463 -6.6615C7.56528 -6.5753 12.3205 -4.58553 15.8597 -1.04185L-12.4421 27.2248C-8.59612 31.0756 -3.43161 33.2386 1.93544 33.3324L2.63463 -6.6615ZM15.851 -1.05064C23.3376 6.43597 23.3316 18.5653 15.8551 26.0462L-12.4374 -2.22983C-20.5663 5.90378 -20.5722 19.0947 -12.4333 27.2336L15.851 -1.05064ZM15.851 26.0503L15.8519 26.0494L-12.4324 -2.23492L-12.4333 -2.23396L15.851 26.0503ZM15.8516 26.0496L26.0493 15.8523L-2.23444 -12.4325L-12.4321 -2.23518L15.8516 26.0496ZM26.0581 15.8435C22.4604 19.4456 17.5779 21.4648 12.4989 21.4648V-18.5352C6.9728 -18.5352 1.67032 -16.3419 -2.24323 -12.4237L26.0581 15.8435ZM12.4989 21.4648C7.41514 21.4648 2.53888 19.4427 -1.05176 15.8521L27.2325 -12.4322C23.3256 -16.3391 18.0294 -18.5352 12.4989 -18.5352V21.4648ZM-1.05163 15.8522L9.14374 26.0474L37.4277 -2.23715L27.2324 -12.4323L-1.05163 15.8522ZM9.14361 26.0473C9.21694 26.1206 9.28205 26.1846 9.3362 26.2373C9.36347 26.2638 9.38859 26.2881 9.41118 26.3099C9.43377 26.3316 9.45428 26.3513 9.47227 26.3685C9.49025 26.3856 9.50622 26.4008 9.51965 26.4136C9.53306 26.4263 9.54457 26.4372 9.55348 26.4456C9.56231 26.454 9.56948 26.4607 9.57385 26.4648C9.57608 26.4669 9.5779 26.4686 9.57901 26.4697C9.57959 26.4702 9.58005 26.4707 9.58034 26.4709C9.58049 26.4711 9.58062 26.4712 9.58069 26.4713C9.58077 26.4713 9.58083 26.4714 9.58084 26.4714C9.5815 26.472 9.57825 26.469 9.57446 26.4654C9.57029 26.4615 9.56333 26.4549 9.55469 26.4468C9.54599 26.4385 9.53468 26.4278 9.52147 26.4153C9.50824 26.4027 9.49247 26.3877 9.47469 26.3708C9.4569 26.3538 9.43659 26.3343 9.4142 26.3127C9.3918 26.2912 9.36688 26.267 9.33981 26.2407C9.28605 26.1884 9.22132 26.1248 9.14838 26.0518L37.4327 -2.23244C37.3593 -2.30576 37.2942 -2.36974 37.2401 -2.42245C37.2128 -2.44898 37.1877 -2.47329 37.1651 -2.49506C37.1425 -2.51682 37.122 -2.53647 37.104 -2.55365C37.086 -2.57083 37.07 -2.58602 37.0566 -2.59877C37.0432 -2.61149 37.0317 -2.62238 37.0228 -2.63079C37.0139 -2.63914 37.0068 -2.6459 37.0024 -2.65001C37.0002 -2.65211 36.9984 -2.65382 36.9972 -2.65487C36.9967 -2.65541 36.9962 -2.65585 36.9959 -2.65613C36.9958 -2.65627 36.9956 -2.65638 36.9956 -2.65646C36.9955 -2.65653 36.9954 -2.65659 36.9954 -2.65659C36.9948 -2.65721 36.998 -2.65416 37.0018 -2.65058C37.006 -2.64666 37.0129 -2.64009 37.0216 -2.63194C37.0303 -2.62371 37.0416 -2.61302 37.0548 -2.60048C37.068 -2.58792 37.0838 -2.57292 37.1016 -2.55594C37.1194 -2.53895 37.1397 -2.51949 37.1621 -2.49792C37.1845 -2.47634 37.2094 -2.45223 37.2365 -2.42588C37.2902 -2.37355 37.3549 -2.30996 37.4279 -2.23701L9.14361 26.0473ZM9.09876 26.002C1.67138 18.5223 1.67067 6.43011 9.14271 -1.04631L37.4353 27.2297C45.5581 19.1021 45.5585 5.95059 37.4823 -2.18264L9.09876 26.002Z" fill="black" mask="url(#path-1-inside-1)"/>
</svg>
