<svg width="24" height="24" viewBox="0 0 24 24" fill="none" xmlns="http://www.w3.org/2000/svg">
<mask id="path-1-inside-1" fill="white">
<path d="M20.7745 20.7285L19.498 6.6825C19.462 6.2955 19.138 6 18.7495 6H16.4995V4.5C16.4995 3.294 16.033 2.1615 15.1855 1.314C14.338 0.4665 13.2055 0 11.9995 0C9.51846 0 7.49946 2.019 7.49946 4.5V6H5.24946C4.86096 6 4.53696 6.2955 4.50246 6.6825L3.22596 20.7285C3.14946 21.5655 3.43146 22.4025 3.99846 23.0235C4.56546 23.6445 5.37246 24 6.21396 24H17.7865C18.628 24 19.435 23.6445 20.002 23.0235C20.569 22.4025 20.8495 21.5655 20.7745 20.7285ZM8.99946 4.5C8.99946 2.8455 10.345 1.5 11.9995 1.5C12.805 1.5 13.5595 1.8105 14.125 2.3745C14.6905 2.9385 14.9995 3.6945 14.9995 4.5V6H8.99946V4.5ZM18.8935 22.0125C18.6055 22.326 18.2125 22.5 17.785 22.5H6.21396C5.78796 22.5 5.39346 22.326 5.10696 22.011C4.81896 21.696 4.68246 21.2895 4.72146 20.8635L5.93496 7.5H7.49946V9.75C7.49946 10.164 7.83546 10.5 8.24946 10.5C8.66346 10.5 8.99946 10.164 8.99946 9.75V7.5H14.9995V9.75C14.9995 10.164 15.3355 10.5 15.7495 10.5C16.1635 10.5 16.4995 10.164 16.4995 9.75V7.5H18.064L19.279 20.865C19.318 21.2895 19.1815 21.6975 18.8935 22.0125Z"/>
</mask>
<path d="M20.7745 20.7285L19.498 6.6825C19.462 6.2955 19.138 6 18.7495 6H16.4995V4.5C16.4995 3.294 16.033 2.1615 15.1855 1.314C14.338 0.4665 13.2055 0 11.9995 0C9.51846 0 7.49946 2.019 7.49946 4.5V6H5.24946C4.86096 6 4.53696 6.2955 4.50246 6.6825L3.22596 20.7285C3.14946 21.5655 3.43146 22.4025 3.99846 23.0235C4.56546 23.6445 5.37246 24 6.21396 24H17.7865C18.628 24 19.435 23.6445 20.002 23.0235C20.569 22.4025 20.8495 21.5655 20.7745 20.7285ZM8.99946 4.5C8.99946 2.8455 10.345 1.5 11.9995 1.5C12.805 1.5 13.5595 1.8105 14.125 2.3745C14.6905 2.9385 14.9995 3.6945 14.9995 4.5V6H8.99946V4.5ZM18.8935 22.0125C18.6055 22.326 18.2125 22.5 17.785 22.5H6.21396C5.78796 22.5 5.39346 22.326 5.10696 22.011C4.81896 21.696 4.68246 21.2895 4.72146 20.8635L5.93496 7.5H7.49946V9.75C7.49946 10.164 7.83546 10.5 8.24946 10.5C8.66346 10.5 8.99946 10.164 8.99946 9.75V7.5H14.9995V9.75C14.9995 10.164 15.3355 10.5 15.7495 10.5C16.1635 10.5 16.4995 10.164 16.4995 9.75V7.5H18.064L19.279 20.865C19.318 21.2895 19.1815 21.6975 18.8935 22.0125Z" fill="black"/>
<path d="M20.7745 20.7285L40.6946 18.9435L40.6935 18.9309L40.6924 18.9184L20.7745 20.7285ZM19.498 6.6825L39.4159 4.87236L39.4139 4.85119L39.412 4.83003L19.498 6.6825ZM16.4995 6H-3.50054V26H16.4995V6ZM7.49946 6V26H27.4995V6H7.49946ZM4.50246 6.6825L24.4204 8.49264L24.4219 8.47552L24.4235 8.4584L4.50246 6.6825ZM3.22596 20.7285L23.1429 22.5489L23.1439 22.5386L3.22596 20.7285ZM14.9995 6V26H34.9995V6H14.9995ZM8.99946 6H-11.0005V26H8.99946V6ZM18.8935 22.0125L33.6219 35.5429L33.638 35.5254L33.654 35.5079L18.8935 22.0125ZM5.10696 22.011L19.9026 8.55404L19.8851 8.5348L19.8675 8.51562L5.10696 22.011ZM4.72146 20.8635L24.6382 22.6869L24.6388 22.6795L24.6395 22.6722L4.72146 20.8635ZM5.93496 7.5V-12.5H-12.3312L-13.9831 5.6913L5.93496 7.5ZM7.49946 7.5H27.4995V-12.5H7.49946V7.5ZM8.99946 7.5V-12.5H-11.0005V7.5H8.99946ZM14.9995 7.5H34.9995V-12.5H14.9995V7.5ZM16.4995 7.5V-12.5H-3.50054V7.5H16.4995ZM18.064 7.5L37.9818 5.68929L36.3283 -12.5H18.064V7.5ZM19.279 20.865L-0.638909 22.6757L-0.638044 22.6852L-0.637169 22.6947L19.279 20.865ZM40.6924 18.9184L39.4159 4.87236L-0.419961 8.49264L0.856538 22.5386L40.6924 18.9184ZM39.412 4.83003C38.4205 -5.82888 29.4777 -14 18.7495 -14V26C8.79825 26 0.503458 18.4199 -0.416069 8.53497L39.412 4.83003ZM18.7495 -14H16.4995V26H18.7495V-14ZM36.4995 6V4.5H-3.50054V6H36.4995ZM36.4995 4.5C36.4995 -1.96296 33.9592 -8.19654 29.3276 -12.8281L1.04332 15.4561C-1.89327 12.5195 -3.50054 8.55096 -3.50054 4.5H36.4995ZM29.3276 -12.8281C24.696 -17.4597 18.4624 -20 11.9995 -20V20C7.94849 20 3.97991 18.3927 1.04332 15.4561L29.3276 -12.8281ZM11.9995 -20C-1.52724 -20 -12.5005 -9.0267 -12.5005 4.5H27.4995C27.4995 13.0647 20.5642 20 11.9995 20V-20ZM-12.5005 4.5V6H27.4995V4.5H-12.5005ZM7.49946 -14H5.24946V26H7.49946V-14ZM5.24946 -14C-5.46394 -14 -14.4615 -5.82937 -15.4185 4.9066L24.4235 8.4584C23.5354 18.4204 15.1859 26 5.24946 26V-14ZM-15.4155 4.87236L-16.692 18.9184L23.1439 22.5386L24.4204 8.49264L-15.4155 4.87236ZM-16.691 18.9081C-17.2802 25.3539 -15.1221 31.7437 -10.7713 36.5089L18.7682 9.53811C21.985 13.0613 23.5791 17.7771 23.1429 22.5489L-16.691 18.9081ZM-10.7713 36.5089C-6.40863 41.287 -0.238022 44 6.21396 44V4C10.9829 4 15.5395 6.00201 18.7682 9.53811L-10.7713 36.5089ZM6.21396 44H17.7865V4H6.21396V44ZM17.7865 44C24.2384 44 30.409 41.287 34.7717 36.5089L5.23224 9.53811C8.46087 6.002 13.0175 4 17.7865 4V44ZM34.7717 36.5089C39.1401 31.7245 41.2678 25.3395 40.6946 18.9435L0.854266 22.5135C0.431148 17.7915 1.99786 13.0805 5.23224 9.53811L34.7717 36.5089ZM28.9995 4.5C28.9995 13.8912 21.3906 21.5 11.9995 21.5V-18.5C-0.700737 -18.5 -11.0005 -8.2002 -11.0005 4.5H28.9995ZM11.9995 21.5C7.5587 21.5 3.21976 19.745 0.00161409 16.5354L28.2483 -11.7864C23.8992 -16.124 18.0512 -18.5 11.9995 -18.5V21.5ZM0.00161409 16.5354C-3.26932 13.2731 -5.00054 8.90229 -5.00054 4.5H34.9995C34.9995 -1.51329 32.6502 -7.39614 28.2483 -11.7864L0.00161409 16.5354ZM-5.00054 4.5V6H34.9995V4.5H-5.00054ZM14.9995 -14H8.99946V26H14.9995V-14ZM28.9995 6V4.5H-11.0005V6H28.9995ZM4.16501 8.48206C7.64304 4.69607 12.5821 2.5 17.785 2.5V42.5C23.8428 42.5 29.5679 39.9559 33.6219 35.5429L4.16501 8.48206ZM17.785 2.5H6.21396V42.5H17.785V2.5ZM6.21396 2.5C11.4049 2.5 16.3878 4.6896 19.9026 8.55404L-9.68866 35.468C-5.60086 39.9624 0.171041 42.5 6.21396 42.5V2.5ZM19.8675 8.51562C23.389 12.3672 25.1106 17.5264 24.6382 22.6869L-15.1953 19.0401C-15.7457 25.0526 -13.7511 31.0248 -9.65362 35.5064L19.8675 8.51562ZM24.6395 22.6722L25.853 9.3087L-13.9831 5.6913L-15.1966 19.0548L24.6395 22.6722ZM5.93496 27.5H7.49946V-12.5H5.93496V27.5ZM-12.5005 7.5V9.75H27.4995V7.5H-12.5005ZM-12.5005 9.75C-12.5005 21.2097 -3.21024 30.5 8.24946 30.5V-9.5C18.8812 -9.5 27.4995 -0.881693 27.4995 9.75H-12.5005ZM8.24946 30.5C19.7092 30.5 28.9995 21.2097 28.9995 9.75H-11.0005C-11.0005 -0.881693 -2.38224 -9.5 8.24946 -9.5V30.5ZM28.9995 9.75V7.5H-11.0005V9.75H28.9995ZM8.99946 27.5H14.9995V-12.5H8.99946V27.5ZM-5.00054 7.5V9.75H34.9995V7.5H-5.00054ZM-5.00054 9.75C-5.00054 21.2097 4.28973 30.5 15.7495 30.5V-9.5C26.3812 -9.5 34.9995 -0.881669 34.9995 9.75H-5.00054ZM15.7495 30.5C27.2092 30.5 36.4995 21.2097 36.4995 9.75H-3.50054C-3.50054 -0.881693 5.11776 -9.5 15.7495 -9.5V30.5ZM36.4995 9.75V7.5H-3.50054V9.75H36.4995ZM16.4995 27.5H18.064V-12.5H16.4995V27.5ZM-1.85391 9.31071L-0.638909 22.6757L39.1968 19.0543L37.9818 5.68929L-1.85391 9.31071ZM-0.637169 22.6947C-1.11125 17.5346 0.607348 12.3732 4.13288 8.51712L33.654 35.5079C37.7556 31.0218 39.7472 25.0444 39.1951 19.0352L-0.637169 22.6947Z" fill="black" mask="url(#path-1-inside-1)"/>
</svg>
