<svg width="66" height="49" viewBox="0 0 66 49" fill="none" xmlns="http://www.w3.org/2000/svg">
<path d="M65.7399 40.5318C64.9616 38.0902 62.6749 36.6071 60.894 35.7928C57.2351 34.1202 53.2225 30.5626 49.6332 26.5L50.1687 26.1711C50.6295 25.8882 50.7738 25.285 50.4908 24.8242C50.2077 24.3631 49.6049 24.2194 49.1438 24.5021L48.3413 24.9947C47.8723 24.4326 47.4131 23.8644 46.9649 23.2932L47.7616 22.7754C48.2151 22.4807 48.3438 21.874 48.049 21.4205C47.7543 20.9669 47.1474 20.8383 46.6941 21.1331L45.7725 21.7322C45.2563 21.0374 44.7595 20.3433 44.2853 19.6554L44.9694 19.2306C45.4289 18.9452 45.57 18.3414 45.2844 17.8819C44.9988 17.4223 44.3951 17.2812 43.9357 17.5669L43.1961 18.0264C41.9053 16.0324 40.8359 14.1373 40.0769 12.4976C39.9672 12.2035 39.0328 9.50572 40.8954 7.64328C41.2779 7.26081 41.2779 6.64064 40.8953 6.25831C40.513 5.87584 39.8928 5.87584 39.5103 6.25831C37.5026 8.26615 37.6717 10.8248 37.9712 12.2229C36.8004 12.5553 34.5986 13.1066 32.1251 13.3541C26.2576 13.9416 23.3739 12.4136 21.9888 11.0284C16.9559 5.9956 16.6296 0.980232 16.627 0.933567C16.6078 0.522871 16.3341 0.168121 15.942 0.0450154C15.5496 -0.0780903 15.1225 0.0567462 14.872 0.38288L0.202614 19.4802C0.0360673 19.6973 -0.0322531 19.974 0.0142821 20.2435C0.0608174 20.513 0.217954 20.7507 0.447666 20.8992C0.721721 21.0765 27.9491 38.6745 35.6219 43.3331C41.8665 47.1245 50.3537 48.9213 56.8518 48.9212C58.8141 48.9212 60.5958 48.7572 62.0785 48.4348C62.3221 48.382 62.5364 48.2381 62.6776 48.0326L65.722 43.6042C65.7241 43.6012 65.7255 43.5976 65.7277 43.5945C65.7513 43.5593 65.7727 43.5226 65.7916 43.4846C65.7952 43.4776 65.7982 43.4705 65.8016 43.4633C65.8183 43.4275 65.8329 43.3907 65.8453 43.3528C65.8465 43.3491 65.8485 43.3455 65.8496 43.3417C65.8504 43.339 65.8521 43.3332 65.8533 43.3296C65.8544 43.3255 65.8557 43.3214 65.8569 43.3172C65.9174 43.1115 66.2043 41.9878 65.7399 40.5318ZM23.4232 29.2841C30.9172 34.0749 36.0457 37.3117 38.6666 38.9046C44.9112 42.6962 53.3984 44.4927 59.8965 44.4927C60.9304 44.4927 61.9123 44.4459 62.8287 44.3557L61.2874 46.5977C58.2362 47.1825 54.0407 47.0795 49.6907 46.3062C44.7687 45.4312 40.1332 43.7807 36.6384 41.6589C29.7776 37.4935 7.18586 22.9192 2.40305 19.8309L4.48875 17.1156C11.4705 21.6214 16.8653 25.0848 20.195 27.2184C20.3586 27.3232 20.5413 27.3732 20.7223 27.3732C21.045 27.3732 21.3608 27.2139 21.5477 26.922C21.8396 26.4666 21.707 25.861 21.2515 25.5691C19.7767 24.6241 17.8958 23.4176 15.6521 21.9756C16.6771 20.088 17.2156 17.9733 17.2156 15.8029C17.2156 12.7921 16.1594 9.85918 14.2419 7.54454C13.8967 7.12791 13.2793 7.07016 12.8629 7.41511C12.4465 7.7602 12.3885 8.37766 12.7336 8.79403C14.3608 10.758 15.257 13.2472 15.257 15.8028C15.257 17.5963 14.8232 19.3437 13.9984 20.9124C11.5714 19.3515 8.78624 17.5579 5.68578 15.557L15.0913 3.31202C15.6902 5.49196 17.1337 8.94317 20.6035 12.4129C25.5851 17.3945 35.6725 14.9399 38.6572 14.0669C39.4176 15.6024 40.4027 17.3021 41.5388 19.0556L38.2115 21.1225C37.7519 21.4079 37.6109 22.0117 37.8964 22.4711C38.0819 22.7698 38.4019 22.9338 38.7293 22.9338C38.9059 22.9338 39.0843 22.8861 39.2452 22.7862L42.6274 20.6851C43.1112 21.3883 43.6151 22.0945 44.1346 22.7969L41.4903 24.5156C41.0368 24.8104 40.9082 25.417 41.203 25.8705C41.3907 26.1593 41.7046 26.3163 42.025 26.3163C42.2079 26.3163 42.3931 26.2651 42.5578 26.1579L45.3219 24.3612C45.7605 24.924 46.2071 25.4805 46.6591 26.0278L44.2002 27.5377C43.7393 27.8206 43.5951 28.4238 43.8781 28.8846C44.0629 29.1857 44.3844 29.3516 44.7135 29.3516C44.8883 29.3516 45.0652 29.3049 45.2251 29.2068L47.9425 27.5382C53.2996 33.678 57.4776 36.3848 60.0797 37.5742C63.6265 39.1957 64.0586 41.2593 64.0443 42.2211C61.0196 42.7464 56.9505 42.6269 52.7355 41.8776C47.8134 41.0026 43.178 39.3521 39.6836 37.2305C37.0754 35.6456 31.9596 32.4168 24.4782 27.634C24.0223 27.3426 23.417 27.4758 23.1255 27.9316C22.8343 28.3873 22.9675 28.9928 23.4232 29.2841Z" fill="#FF3D00" fill-opacity="0.74"/>
</svg>
