<svg width="60" height="60" viewBox="0 0 60 60" fill="none" xmlns="http://www.w3.org/2000/svg">
<g clip-path="url(#clip0)">
<path d="M28.9373 22.3413C29.4226 22.3413 29.8162 21.9479 29.8162 21.4624V20.9019C29.8162 20.4164 29.4226 20.023 28.9373 20.023C28.4519 20.023 28.0583 20.4164 28.0583 20.9019V21.4624C28.0583 21.9478 28.4519 22.3413 28.9373 22.3413Z" fill="#FF3D00" fill-opacity="0.74"/>
<path d="M38.0354 30.8789C38.5209 30.8789 38.9143 30.4855 38.9143 30C38.9143 29.5145 38.5209 29.1211 38.0354 29.1211H37.4749C36.9893 29.1211 36.5959 29.5145 36.5959 30C36.5959 30.4855 36.9893 30.8789 37.4749 30.8789H38.0354Z" fill="#FF3D00" fill-opacity="0.74"/>
<path d="M28.9371 37.6587C28.4517 37.6587 28.0582 38.0521 28.0582 38.5376V39.0981C28.0582 39.5836 28.4517 39.977 28.9371 39.977C29.4225 39.977 29.816 39.5836 29.816 39.0981V38.5376C29.816 38.0521 29.4225 37.6587 28.9371 37.6587Z" fill="#FF3D00" fill-opacity="0.74"/>
<path d="M19.839 29.1211C19.3536 29.1211 18.9601 29.5145 18.9601 30C18.9601 30.4855 19.3536 30.8789 19.839 30.8789H20.3996C20.885 30.8789 21.2785 30.4855 21.2785 30C21.2785 29.5145 20.885 29.1211 20.3996 29.1211H19.839Z" fill="#FF3D00" fill-opacity="0.74"/>
<path d="M28.0584 29.1211H26.0077C25.5223 29.1211 25.1288 29.5145 25.1288 30C25.1288 30.4855 25.5223 30.8789 26.0077 30.8789H28.9373C29.4227 30.8789 29.8162 30.4855 29.8162 30V24.562C29.8162 24.0765 29.4227 23.6831 28.9373 23.6831C28.4519 23.6831 28.0584 24.0765 28.0584 24.562V29.1211Z" fill="#FF3D00" fill-opacity="0.74"/>
<path d="M34.3407 28.1599C34.8263 28.1599 35.2197 27.7665 35.2197 27.281C35.2197 26.7955 34.8263 26.4021 34.3407 26.4021H33.0353C32.5498 26.4021 32.1564 26.7955 32.1564 27.281C32.1564 27.7665 32.5498 28.1599 33.0353 28.1599H34.3407Z" fill="#FF3D00" fill-opacity="0.74"/>
<path d="M47.1745 24.3128L46.4264 22.0849C46.2721 21.6251 45.9478 21.2528 45.5134 21.0369C45.0789 20.8208 44.5865 20.787 44.1266 20.9414L42.6924 21.423L40.1113 13.7367C39.6161 11.4268 38.3005 5.29078 37.8053 2.98078C37.4351 1.25355 35.8842 0 34.118 0H23.7564C21.99 0 20.4393 1.25355 20.069 2.98066C19.6344 5.00754 18.2561 11.4363 17.7629 13.7366L13.1326 27.5252C12.5967 29.1211 12.5967 30.8788 13.1326 32.4746L17.7628 46.2631C17.9879 47.3133 19.5267 54.4907 19.7295 55.4358C19.7298 55.4377 19.7303 55.4394 19.7306 55.4413C20.054 56.8625 20.0509 57.1627 20.3038 57.7406C20.4985 58.1852 21.0169 58.3881 21.4614 58.1932C21.9061 57.9987 22.1087 57.4804 21.9141 57.0356C21.782 56.7339 21.7805 56.5775 21.6782 56.1397H25.1288V58.2422H24.1853C23.6999 58.2422 23.3064 58.6356 23.3064 59.1211C23.3064 59.6066 23.6999 60 24.1853 60H34.118C35.8842 60 37.4351 58.7466 37.8053 57.0193C38.1011 55.6396 39.8544 47.4618 40.1114 46.2631L42.0115 40.6051C42.166 40.1449 41.9182 39.6466 41.458 39.4922C40.9978 39.3373 40.4996 39.5854 40.3451 40.0455L38.6305 45.1514H19.244L14.7992 31.915C14.3843 30.68 14.3843 29.3197 14.7992 28.0847L19.244 14.8484H38.6305L43.0753 28.0847C43.4899 29.3196 43.4899 30.6799 43.0752 31.915L41.4637 36.7143C41.3092 37.1745 41.5569 37.6727 42.0171 37.8272C42.4771 37.982 42.9757 37.734 43.1301 37.2738L44.7416 32.4745C45.2775 30.8787 45.2775 29.121 44.7416 27.5251L44.5969 27.0942L46.0312 26.6126C46.9805 26.2939 47.4934 25.2621 47.1745 24.3128ZM21.3014 54.3821L20.7129 51.6373H25.1288V54.3821H21.3014ZM26.8866 58.2422V53.8923H30.9878V58.2422H26.8866ZM36.5731 54.3821H32.7456V51.6373H37.1615L36.5731 54.3821ZM34.118 58.2422H32.7456V56.14H36.1962L36.0866 56.6509C35.8889 57.5729 35.061 58.2422 34.118 58.2422ZM37.5385 49.8795H32.7457V46.9093H38.1753L37.5385 49.8795ZM30.9878 46.9093V52.1345H26.8866V46.9093H30.9878ZM25.1288 46.9093V49.8795H20.336L19.6992 46.9093H25.1288ZM20.336 10.1205H25.1288V13.0905H19.6992L20.336 10.1205ZM21.3014 5.61785H25.1289V8.36273H20.7129L21.3014 5.61785ZM37.1616 8.36273H32.7457V5.61785H36.5732L37.1616 8.36273ZM30.9878 13.0905H26.8866V7.86539H30.9878V13.0905ZM32.7456 13.0905V10.1205H37.5383L38.1751 13.0905H32.7456ZM36.0866 3.3491L36.1962 3.86004H32.7456V1.75781H34.118C35.061 1.75781 35.8889 2.42707 36.0866 3.3491ZM30.9878 1.75781V6.10758H26.8866V1.75781H30.9878ZM23.7564 1.75781H25.1288V3.86004H21.6782L21.7878 3.3491C21.9854 2.42707 22.8134 1.75781 23.7564 1.75781ZM45.4715 24.9464L44.0374 25.4279C43.9885 25.2823 43.8489 24.8664 43.2521 23.0893L44.6863 22.6077C44.7164 22.5975 44.7499 22.614 44.7603 22.6445L45.5084 24.8723C45.5185 24.9029 45.5021 24.9361 45.4715 24.9464Z" fill="#FF3D00" fill-opacity="0.74"/>
<path d="M24.8765 16.6063H22.6962C21.3874 16.6063 20.2281 17.4398 19.8113 18.6805L16.4655 28.6442C16.172 29.5184 16.172 30.4813 16.4655 31.3555L19.8115 41.3192C20.2281 42.56 21.3873 43.3936 22.6962 43.3936H35.1784C36.4871 43.3936 37.6465 42.56 38.0631 41.3192L41.4089 31.3555C41.7026 30.4813 41.7026 29.5184 41.4089 28.6442L38.0631 18.6806C37.6464 17.4398 36.4871 16.6063 35.1784 16.6063H28.3908C27.9054 16.6063 27.5119 16.9997 27.5119 17.4852C27.5119 17.9707 27.9054 18.3641 28.3908 18.3641H35.1784C35.7312 18.3641 36.2209 18.7162 36.3968 19.2403L39.7426 29.2039C39.915 29.7172 39.915 30.2826 39.7426 30.7959L36.3968 40.7597C36.2208 41.2837 35.731 41.6359 35.1784 41.6359H22.696C22.1433 41.6359 21.6537 41.2837 21.4778 40.7597L18.1318 30.7959C17.9594 30.2826 17.9594 29.7172 18.1318 29.2039L21.4776 19.2402C21.6535 18.7161 22.1433 18.3641 22.696 18.3641H24.8764C25.3618 18.3641 25.7553 17.9707 25.7553 17.4852C25.7553 16.9997 25.3619 16.6063 24.8765 16.6063Z" fill="#FF3D00" fill-opacity="0.74"/>
</g>
<defs>
<clipPath id="clip0">
<rect width="60" height="60" fill="white"/>
</clipPath>
</defs>
</svg>
